<mxfile host="app.diagrams.net" agent="Mozilla/5.0 (Windows NT 10.0; Win64; x64) AppleWebKit/537.36 (KHTML, like Gecko) Chrome/134.0.0.0 Safari/537.36 Edg/134.0.0.0" version="26.1.0">
  <diagram name="Page-1" id="nvmU6tLqVLdkS3lbJJC_">
    <mxGraphModel dx="2066" dy="1141" grid="1" gridSize="10" guides="1" tooltips="1" connect="1" arrows="1" fold="1" page="1" pageScale="1" pageWidth="850" pageHeight="1100" math="0" shadow="0">
      <root>
        <mxCell id="0" />
        <mxCell id="1" parent="0" />
        <mxCell id="u5Qkocpz6x3yCR28rzL9-16" value="" style="swimlane;startSize=0;" vertex="1" parent="1">
          <mxGeometry x="130" y="70" width="240" height="850" as="geometry" />
        </mxCell>
        <mxCell id="u5Qkocpz6x3yCR28rzL9-19" value="Sprint Review" style="rounded=1;whiteSpace=wrap;html=1;" vertex="1" parent="u5Qkocpz6x3yCR28rzL9-16">
          <mxGeometry x="30" y="620" width="170" height="60" as="geometry" />
        </mxCell>
        <mxCell id="u5Qkocpz6x3yCR28rzL9-29" value="Sprint Retro" style="rounded=1;whiteSpace=wrap;html=1;" vertex="1" parent="u5Qkocpz6x3yCR28rzL9-16">
          <mxGeometry x="30" y="700" width="170" height="60" as="geometry" />
        </mxCell>
        <mxCell id="u5Qkocpz6x3yCR28rzL9-2" value="Sprint 1 (Weeks 1-2)" style="text;html=1;align=center;verticalAlign=middle;resizable=0;points=[];autosize=1;strokeColor=none;fillColor=none;" vertex="1" parent="1">
          <mxGeometry x="130" y="28" width="130" height="30" as="geometry" />
        </mxCell>
        <mxCell id="u5Qkocpz6x3yCR28rzL9-3" value="Set up database and server (Azure SQL)" style="rounded=1;whiteSpace=wrap;html=1;" vertex="1" parent="1">
          <mxGeometry x="160" y="100" width="170" height="60" as="geometry" />
        </mxCell>
        <mxCell id="u5Qkocpz6x3yCR28rzL9-6" value="Create Customer table" style="rounded=1;whiteSpace=wrap;html=1;" vertex="1" parent="1">
          <mxGeometry x="160" y="180" width="170" height="60" as="geometry" />
        </mxCell>
        <mxCell id="u5Qkocpz6x3yCR28rzL9-7" value="Create Products table" style="rounded=1;whiteSpace=wrap;html=1;" vertex="1" parent="1">
          <mxGeometry x="160" y="250" width="170" height="60" as="geometry" />
        </mxCell>
        <mxCell id="u5Qkocpz6x3yCR28rzL9-8" value="Create Orders table" style="rounded=1;whiteSpace=wrap;html=1;" vertex="1" parent="1">
          <mxGeometry x="160" y="320" width="170" height="60" as="geometry" />
        </mxCell>
        <mxCell id="u5Qkocpz6x3yCR28rzL9-9" value="Create CustomerAddress table" style="rounded=1;whiteSpace=wrap;html=1;" vertex="1" parent="1">
          <mxGeometry x="160" y="390" width="170" height="60" as="geometry" />
        </mxCell>
        <mxCell id="u5Qkocpz6x3yCR28rzL9-10" value="Create OrderItems table" style="rounded=1;whiteSpace=wrap;html=1;" vertex="1" parent="1">
          <mxGeometry x="160" y="470" width="170" height="60" as="geometry" />
        </mxCell>
        <mxCell id="u5Qkocpz6x3yCR28rzL9-11" value="Ensure enforcement of primary and foreign keys for relationships" style="rounded=1;whiteSpace=wrap;html=1;" vertex="1" parent="1">
          <mxGeometry x="160" y="547" width="170" height="60" as="geometry" />
        </mxCell>
        <mxCell id="u5Qkocpz6x3yCR28rzL9-14" value="Sprint 2 (Weeks 3-4)" style="text;html=1;align=center;verticalAlign=middle;resizable=0;points=[];autosize=1;strokeColor=none;fillColor=none;" vertex="1" parent="1">
          <mxGeometry x="520" y="28" width="130" height="30" as="geometry" />
        </mxCell>
        <mxCell id="u5Qkocpz6x3yCR28rzL9-15" value="Insert Test data into tables" style="rounded=1;whiteSpace=wrap;html=1;" vertex="1" parent="1">
          <mxGeometry x="160" y="617" width="170" height="60" as="geometry" />
        </mxCell>
        <mxCell id="u5Qkocpz6x3yCR28rzL9-17" value="" style="swimlane;startSize=0;" vertex="1" parent="1">
          <mxGeometry x="480" y="70" width="240" height="960" as="geometry" />
        </mxCell>
        <mxCell id="u5Qkocpz6x3yCR28rzL9-18" value="Identify opportunities for indexes" style="rounded=1;whiteSpace=wrap;html=1;" vertex="1" parent="u5Qkocpz6x3yCR28rzL9-17">
          <mxGeometry x="40" y="100" width="170" height="60" as="geometry" />
        </mxCell>
        <mxCell id="u5Qkocpz6x3yCR28rzL9-20" value="Create Indexes and retest CRUD" style="rounded=1;whiteSpace=wrap;html=1;" vertex="1" parent="u5Qkocpz6x3yCR28rzL9-17">
          <mxGeometry x="40" y="180" width="170" height="60" as="geometry" />
        </mxCell>
        <mxCell id="u5Qkocpz6x3yCR28rzL9-22" value="Identify necessary access roles for users &amp;amp; logins" style="rounded=1;whiteSpace=wrap;html=1;" vertex="1" parent="u5Qkocpz6x3yCR28rzL9-17">
          <mxGeometry x="40" y="260" width="170" height="60" as="geometry" />
        </mxCell>
        <mxCell id="u5Qkocpz6x3yCR28rzL9-23" value="Implement masking for sensitive data" style="rounded=1;whiteSpace=wrap;html=1;" vertex="1" parent="u5Qkocpz6x3yCR28rzL9-17">
          <mxGeometry x="40" y="330" width="170" height="60" as="geometry" />
        </mxCell>
        <mxCell id="u5Qkocpz6x3yCR28rzL9-24" value="Testing (include load testing)" style="rounded=1;whiteSpace=wrap;html=1;" vertex="1" parent="u5Qkocpz6x3yCR28rzL9-17">
          <mxGeometry x="40" y="410" width="170" height="60" as="geometry" />
        </mxCell>
        <mxCell id="u5Qkocpz6x3yCR28rzL9-25" value="Set up test - production strategy" style="rounded=1;whiteSpace=wrap;html=1;" vertex="1" parent="u5Qkocpz6x3yCR28rzL9-17">
          <mxGeometry x="40" y="490" width="170" height="60" as="geometry" />
        </mxCell>
        <mxCell id="u5Qkocpz6x3yCR28rzL9-26" value="Deploy database to Production" style="rounded=1;whiteSpace=wrap;html=1;" vertex="1" parent="u5Qkocpz6x3yCR28rzL9-17">
          <mxGeometry x="40" y="730" width="170" height="60" as="geometry" />
        </mxCell>
        <mxCell id="u5Qkocpz6x3yCR28rzL9-27" value="Obtain sign off" style="rounded=1;whiteSpace=wrap;html=1;" vertex="1" parent="u5Qkocpz6x3yCR28rzL9-17">
          <mxGeometry x="40" y="650" width="170" height="60" as="geometry" />
        </mxCell>
        <mxCell id="u5Qkocpz6x3yCR28rzL9-28" value="Set up Monitoring for database performance and storage" style="rounded=1;whiteSpace=wrap;html=1;" vertex="1" parent="u5Qkocpz6x3yCR28rzL9-17">
          <mxGeometry x="40" y="560" width="170" height="60" as="geometry" />
        </mxCell>
        <mxCell id="u5Qkocpz6x3yCR28rzL9-21" value="Run CRUD tests (insert, delete, update, select)" style="rounded=1;whiteSpace=wrap;html=1;" vertex="1" parent="u5Qkocpz6x3yCR28rzL9-17">
          <mxGeometry x="35" y="20" width="170" height="60" as="geometry" />
        </mxCell>
        <mxCell id="u5Qkocpz6x3yCR28rzL9-30" value="Sprint Review" style="rounded=1;whiteSpace=wrap;html=1;" vertex="1" parent="u5Qkocpz6x3yCR28rzL9-17">
          <mxGeometry x="40" y="800" width="170" height="60" as="geometry" />
        </mxCell>
        <mxCell id="u5Qkocpz6x3yCR28rzL9-31" value="Sprint Retro" style="rounded=1;whiteSpace=wrap;html=1;" vertex="1" parent="u5Qkocpz6x3yCR28rzL9-17">
          <mxGeometry x="40" y="880" width="170" height="60" as="geometry" />
        </mxCell>
      </root>
    </mxGraphModel>
  </diagram>
</mxfile>
